<svg xmlns="http://www.w3.org/2000/svg" width="87" height="96" viewBox="0 0 87 96">
  <defs>
    <linearGradient id="icon-a" x1="38.567%" x2="78.118%" y1="100%" y2="64.364%">
      <stop offset="0%" stop-color="#87C2FF"/>
      <stop offset="100%" stop-color="#379AFF"/>
    </linearGradient>
  </defs>
  <g fill="none" fill-rule="evenodd">
    <path fill="#379AFF" fill-rule="nonzero" d="M30.0204858,49.3626659 L62.1724138,0 L85.1476118,36.7781538 C88.5240676,41.8693846 87.1561277,48.7467692 82.0907553,52.1390769 C80.2806113,53.352 78.1536232,54 75.9784198,54 L32.5342752,54 C30.8774209,54 29.5342752,52.6568542 29.5342752,51 C29.5342752,50.4186403 29.7031924,49.8498046 30.0204858,49.3626659 Z M62.064,11.154 L38.064,48 L75.9784198,48 C76.7988092,48 77.6054682,47.7960031 78.3287019,47.4082899 L78.7520734,47.1537782 C80.9413206,45.6876273 81.6248064,42.7823526 80.3115141,40.376097 L80.0589289,39.9570382 L62.064,11.154 Z" transform="matrix(1 0 0 -1 0 54)"/>
    <path fill="url(#icon-a)" d="M76.0285239,96 C82.0875216,96 87,91.0605354 87,84.9682534 C87,82.7908624 86.3581686,80.6617353 85.156792,78.8483919 L34.906742,1.86740274 C33.6599218,-0.0426740331 31.1092108,-0.57479729 29.2095694,0.678872184 C28.7626176,0.973838302 28.377124,1.35356505 28.0746473,1.79681623 L1.8426937,40.2372787 C-0.614231234,43.9439456 -0.614231234,48.7703347 1.8426937,52.4770016 L27.4428504,91.0881148 C29.4776478,94.1563193 32.9032169,96 36.5716671,96 L76.0285239,96 Z"/>
  </g>
</svg>
